<?xml version="1.0" encoding="utf-8"?>
<!-- Generator: Adobe Illustrator 19.2.0, SVG Export Plug-In . SVG Version: 6.00 Build 0)  -->
<svg version="1.1" xmlns="http://www.w3.org/2000/svg" xmlns:xlink="http://www.w3.org/1999/xlink" x="0px" y="0px" width="24px"
	 height="24px" viewBox="0 0 24 24" enable-background="new 0 0 24 24" xml:space="preserve">
<g id="Filled_Icons">
	<path fill="#FFAA1D" d="M10.5,0c-4.411,0-8,3.588-8,8c0,4.244,7.273,15.307,7.583,15.775C10.175,23.915,10.332,24,10.5,24s0.324-0.085,0.417-0.225
		C11.227,23.307,18.5,12.244,18.5,8C18.5,3.588,14.911,0,10.5,0z M14.5,9H11v3.5c0,0.275-0.224,0.5-0.5,0.5S10,12.775,10,12.5V9H6.5
		C6.224,9,6,8.775,6,8.5C6,8.223,6.224,8,6.5,8H10V4.5C10,4.223,10.224,4,10.5,4S11,4.223,11,4.5V8h3.5C14.776,8,15,8.223,15,8.5
		C15,8.775,14.776,9,14.5,9z"/>
</g>
<g id="invisible_shape">
	<rect fill="none" width="24" height="24"/>
</g>
</svg>
