<?xml version="1.0" encoding="utf-8"?>
<!-- Generator: Adobe Illustrator 19.2.0, SVG Export Plug-In . SVG Version: 6.00 Build 0)  -->
<svg version="1.1" xmlns="http://www.w3.org/2000/svg" xmlns:xlink="http://www.w3.org/1999/xlink" x="0px" y="0px" width="24px"
	 height="24px" viewBox="0 0 24 24" enable-background="new 0 0 24 24" xml:space="preserve">
<g id="Filled_Icons">
	<path fill="#f10" d="M10.5,0c-4.411,0-8,3.588-8,8c0,4.244,7.273,15.307,7.583,15.775C10.175,23.915,10.332,24,10.5,24s0.324-0.085,0.417-0.225
		C11.227,23.307,18.5,12.244,18.5,8C18.5,3.588,14.911,0,10.5,0z M14.813,6.889l-2.229,1.783l0.89,2.669
		c0.07,0.21-0.006,0.441-0.188,0.569C13.199,11.97,13.1,12,13,12c-0.111,0-0.222-0.038-0.313-0.111l-2.188-1.75l-2.188,1.75
		c-0.174,0.14-0.416,0.148-0.599,0.021c-0.182-0.127-0.259-0.358-0.188-0.569l0.89-2.669L6.188,6.889
		C6.022,6.758,5.958,6.535,6.028,6.334C6.099,6.134,6.287,6,6.5,6h2.661l0.874-2.186C10.111,3.624,10.295,3.5,10.5,3.5
		c0.204,0,0.388,0.124,0.464,0.314L11.838,6H14.5c0.212,0,0.401,0.134,0.472,0.334C15.042,6.535,14.977,6.758,14.813,6.889z"/>
</g>
<g id="invisible_shape">
	<rect fill="none" width="24" height="24"/>
</g>
</svg>
