<?xml version="1.0" standalone="no"?>
<!DOCTYPE svg PUBLIC "-//W3C//DTD SVG 20010904//EN"
 "http://www.w3.org/TR/2001/REC-SVG-20010904/DTD/svg10.dtd">
<svg version="1.0" xmlns="http://www.w3.org/2000/svg"
 width="2750.000000pt" height="2100.000000pt" viewBox="0 0 2750.000000 2100.000000"
 preserveAspectRatio="xMidYMid meet">

<g transform="translate(0.000000,2100.000000) scale(0.100000,-0.100000)"
fill="#ffffff" stroke="none">
<path d="M20490 17049 c-716 -50 -1758 -226 -2393 -404 -463 -129 -628 -213
-951 -481 -388 -321 -980 -940 -1620 -1691 -76 -91 -80 -93 -121 -93 -33 0
-52 -7 -76 -27 -68 -57 -149 -216 -134 -263 9 -27 48 -35 78 -16 20 14 121
126 174 193 11 14 22 10 91 -32 169 -102 437 -318 474 -382 16 -28 16 -31 -4
-74 -27 -54 -341 -377 -376 -386 -61 -15 -165 87 -363 357 -71 96 -137 184
-147 195 -26 30 -73 65 -88 65 -22 0 -79 -57 -98 -97 -14 -31 -28 -43 -73 -63
-92 -39 -246 -157 -385 -292 -35 -34 -63 -76 -94 -142 -24 -51 -44 -100 -45
-107 -1 -25 -18 25 -18 57 -1 40 -29 124 -50 148 -26 30 -58 38 -94 22 -72
-31 -110 -91 -331 -532 -125 -250 -189 -367 -226 -413 -54 -65 -80 -115 -80
-150 0 -16 -11 -22 -52 -30 -224 -47 -390 -287 -376 -544 6 -113 29 -150 194
-311 l142 -139 -79 -64 c-44 -35 -87 -63 -96 -61 -54 10 -181 232 -273 477
-28 74 -55 141 -61 148 -30 35 -79 4 -79 -50 0 -99 -237 -289 -1000 -802 -471
-316 -503 -341 -551 -438 -12 -23 -23 -43 -24 -45 -2 -2 -16 3 -32 11 -42 22
-172 47 -244 47 -159 0 -549 -81 -944 -195 -85 -25 -157 -45 -159 -45 -3 0 14
32 36 70 34 59 56 82 132 139 152 114 195 171 210 270 10 72 -35 219 -98 320
-26 41 -27 61 -2 61 27 0 156 -422 156 -511 0 -28 -5 -41 -20 -49 -26 -14 -26
-56 -1 -70 22 -11 47 -5 76 21 11 10 98 54 192 98 410 190 589 324 601 452 6
61 -10 100 -56 141 -73 63 -216 107 -354 108 -115 0 -350 -40 -525 -91 -8 -3
-42 70 -93 196 -153 381 -237 520 -422 705 -111 110 -223 201 -418 340 -80 57
-167 121 -193 142 -27 21 -55 38 -63 38 -13 0 -34 -29 -34 -48 0 -5 59 -108
131 -228 72 -121 182 -307 244 -415 62 -108 182 -299 267 -425 199 -298 253
-408 293 -599 20 -96 24 -282 6 -345 -32 -116 -38 -124 -119 -173 -120 -72
-247 -128 -305 -134 -51 -5 -54 -4 -127 51 -113 85 -389 246 -422 246 -15 0
-28 -1 -28 -3 0 -13 -91 -451 -94 -455 -6 -6 -806 154 -1141 228 -251 56 -518
130 -539 151 -6 5 44 34 125 73 l134 64 216 -5 c239 -6 358 4 539 43 515 114
1050 412 1195 666 53 92 23 209 -77 310 -111 110 -310 218 -420 226 -53 4 -58
3 -69 -20 -12 -27 -10 -38 40 -178 32 -90 57 -244 47 -285 -14 -53 -173 -150
-422 -254 -67 -28 -125 -51 -129 -51 -4 0 22 32 58 70 76 84 129 173 201 341
105 244 197 560 231 790 19 136 19 362 0 453 -20 95 -65 186 -121 246 -165
176 -564 335 -1009 402 -139 20 -534 17 -660 -6 -236 -43 -435 -120 -590 -226
-70 -49 -264 -238 -301 -294 -30 -47 -34 -27 -8 47 114 316 230 484 361 520
213 59 419 72 978 61 793 -15 856 -12 915 51 13 14 26 25 30 25 4 0 12 -18 19
-39 23 -78 102 -221 153 -276 63 -69 113 -99 214 -127 71 -19 102 -22 299 -21
155 0 279 7 420 22 110 12 310 26 445 32 135 5 250 11 256 13 7 3 24 -9 40
-25 47 -49 116 -51 172 -4 27 23 31 23 74 10 82 -24 248 -48 298 -42 70 8 107
32 142 88 l31 49 73 0 73 0 51 -67 c163 -217 332 -329 515 -340 94 -6 149 9
178 48 39 54 -5 119 -187 276 -61 53 -112 99 -114 103 -10 25 193 19 558 -15
276 -26 340 -19 340 42 0 43 -38 90 -128 158 -164 123 -462 257 -632 284 -36
6 -124 11 -196 11 -117 0 -183 -4 -396 -25 l-58 -6 0 39 c0 47 -11 57 -70 66
-79 11 -265 9 -288 -3 -27 -14 -30 -62 -5 -87 32 -31 126 -67 205 -78 89 -12
85 -4 68 -131 -8 -59 -39 -203 -44 -206 -3 -2 -354 -38 -372 -39 l-22 0 24 75
c53 166 70 387 39 492 -19 65 -56 96 -140 122 -407 126 -2418 324 -2755 272
-267 -42 -799 -223 -1310 -447 -85 -37 -274 -128 -420 -201 -514 -257 -640
-362 -640 -528 0 -34 5 -76 11 -94 10 -28 8 -34 -20 -67 -39 -44 -90 -145
-127 -252 -28 -81 -32 -86 -106 -148 -89 -75 -141 -96 -303 -124 -428 -72
-1527 -82 -2970 -25 -562 22 -1609 76 -1747 89 -46 5 -78 -9 -78 -34 0 -37 42
-41 1010 -90 1015 -51 1714 -72 2455 -73 1045 0 1476 42 1630 160 l48 36 -7
-34 c-4 -19 -16 -89 -27 -157 -14 -90 -26 -132 -44 -158 -64 -94 -93 -249 -75
-398 24 -196 73 -338 235 -676 126 -263 211 -459 284 -654 69 -183 68 -172 27
-241 -41 -67 -50 -106 -44 -176 6 -55 40 -107 98 -146 41 -29 74 -29 101 -2
20 20 21 29 16 113 -3 53 -16 126 -30 174 l-25 84 61 71 c34 40 91 103 128
141 l65 69 56 -79 c85 -121 186 -232 508 -559 321 -326 395 -412 501 -581 94
-152 150 -227 228 -305 188 -187 447 -289 927 -364 l156 -24 45 -42 c116 -107
319 -154 708 -166 581 -17 1251 109 1482 279 39 29 326 291 458 419 93 90 106
99 195 134 52 20 149 63 215 95 99 48 140 75 236 157 64 55 235 193 380 308
900 712 1214 976 1423 1196 116 122 151 186 137 247 l-9 42 72 51 c80 58 156
123 294 252 186 172 427 342 670 471 169 89 206 112 307 191 187 146 324 344
356 516 14 78 6 129 -25 166 l-23 26 85 101 c46 56 105 133 130 171 26 39 48
72 49 74 2 3 21 -5 42 -17 24 -14 56 -22 85 -22 45 0 49 2 175 121 143 133
213 210 260 284 45 71 49 105 18 158 -49 83 -243 246 -466 392 l-102 67 54 61
c29 34 147 170 262 302 840 963 1452 1539 1815 1708 514 238 2119 540 3055
573 212 8 317 -3 443 -47 189 -66 427 -201 592 -337 101 -83 480 -456 519
-511 74 -105 54 -117 -387 -237 -444 -120 -714 -215 -909 -319 l-84 -44 51 57
c64 72 105 155 125 257 61 305 23 847 -67 942 -50 53 -31 67 -678 -486 -419
-359 -742 -671 -829 -801 -38 -57 -42 -70 -39 -112 l3 -48 -50 -10 c-27 -5
-76 -14 -108 -18 l-57 -9 -19 41 c-38 86 -134 149 -276 181 -38 9 -143 19
-231 22 -216 8 -335 -13 -573 -99 -106 -38 -110 -35 -114 87 -4 102 -24 154
-77 199 -40 33 -75 34 -96 0 -15 -22 -15 -32 -4 -81 7 -32 32 -95 56 -141 65
-123 63 -126 -106 -214 -380 -197 -861 -519 -1220 -818 -125 -105 -145 -128
-135 -160 18 -56 201 11 685 251 411 203 623 329 698 414 44 50 123 196 151
278 11 31 25 53 35 55 9 2 38 -16 65 -40 92 -82 216 -103 571 -95 135 3 305
13 379 21 74 9 136 14 139 11 3 -3 -2 -31 -11 -64 -60 -215 -373 -718 -616
-989 -113 -126 -197 -191 -332 -256 -182 -87 -293 -184 -407 -358 -74 -114
-113 -230 -120 -351 -6 -120 7 -188 55 -279 31 -60 116 -153 166 -183 15 -9
15 -15 -4 -80 -15 -49 -21 -102 -22 -177 -1 -60 -3 -108 -5 -108 -2 0 -18 11
-35 24 -53 41 -77 46 -148 31 -186 -40 -573 -178 -798 -286 -307 -148 -432
-266 -401 -381 40 -142 375 -241 815 -241 262 0 557 33 818 91 l85 19 78 -124
c225 -354 395 -528 499 -509 38 8 53 22 70 71 17 50 3 122 -39 212 -37 78
-163 266 -246 370 l-50 61 47 16 c45 16 49 15 61 -1 26 -34 148 -208 164 -233
8 -14 17 -55 20 -92 4 -75 22 -103 72 -116 25 -7 35 -18 53 -63 20 -48 22 -72
23 -222 l0 -168 -31 -45 c-33 -49 -34 -49 -117 -13 -26 11 -46 27 -52 44 -5
14 -17 28 -26 32 -33 12 -44 -19 -59 -177 -18 -184 -38 -313 -67 -435 -37
-159 -65 -202 -136 -212 -34 -5 -50 0 -100 31 -33 20 -65 42 -71 50 -10 12 19
76 151 333 90 175 164 328 166 340 4 28 -12 39 -242 154 -99 49 -192 89 -207
89 -18 0 -41 -11 -61 -29 l-33 -29 -25 46 c-44 81 -367 322 -550 410 -139 67
-230 52 -230 -38 0 -76 65 -222 157 -353 30 -43 53 -81 51 -83 -3 -2 -98 57
-213 132 -318 208 -456 280 -588 304 -98 19 -186 -23 -207 -100 -26 -98 58
-238 262 -436 251 -243 557 -446 798 -529 58 -20 220 -91 360 -159 266 -128
357 -166 468 -196 57 -15 338 -124 351 -136 2 -2 -25 -34 -61 -72 -36 -37 -77
-91 -92 -120 -14 -28 -28 -52 -31 -52 -2 0 -27 15 -56 33 -43 26 -62 32 -108
32 -141 -2 -510 -174 -740 -346 -285 -213 -380 -424 -267 -594 165 -248 597
-225 1378 76 140 53 185 67 212 62 24 -4 48 1 79 16 l45 22 57 -36 c261 -167
634 -128 1257 132 35 15 41 14 120 -12 154 -51 268 -124 268 -173 0 -29 -37
-80 -82 -113 -240 -174 -1079 -448 -2366 -769 -428 -107 -433 -109 -535 -165
-191 -107 -389 -245 -510 -355 -32 -29 -59 -51 -61 -49 -1 2 -11 35 -21 73
-28 107 -69 180 -123 219 -126 92 -350 166 -549 183 -86 7 -150 -5 -196 -38
-52 -37 -62 -14 -113 253 -59 307 -142 686 -209 957 -128 516 -222 777 -298
826 -142 94 -638 83 -1371 -30 -412 -63 -804 -147 -917 -195 -70 -31 -79 -54
-79 -216 0 -274 102 -916 215 -1353 31 -122 33 -136 18 -145 -159 -99 -189
-153 -228 -418 -13 -91 -20 -115 -44 -145 -75 -96 -68 -222 12 -222 36 0 55
32 71 116 l13 69 54 -2 c104 -5 359 -69 482 -122 l48 -21 -19 -28 c-29 -39
-106 -197 -128 -259 -10 -29 -22 -53 -27 -53 -4 0 -42 17 -85 39 -242 121
-492 172 -575 118 -98 -64 -592 -958 -795 -1438 -85 -200 -97 -244 -96 -359 0
-90 6 -122 36 -225 79 -264 208 -583 359 -885 161 -321 287 -517 422 -653 152
-154 317 -202 842 -247 404 -34 420 -37 505 -79 56 -28 98 -60 166 -127 163
-162 398 -300 665 -388 227 -76 312 -90 549 -90 215 -1 286 8 431 55 235 75
538 286 708 492 54 64 63 70 169 116 75 33 112 44 112 35 0 -30 25 -64 58 -80
32 -15 333 -16 4331 -5 2363 6 4647 13 5076 16 837 6 822 5 795 55 l-11 21
-1562 -6 c-1444 -5 -7893 -25 -8373 -25 -238 0 -258 5 -233 54 10 20 48 47
131 92 464 251 740 504 828 758 44 128 46 363 4 564 -71 342 -263 746 -587
1232 -221 332 -353 470 -447 470 -39 0 -70 -24 -70 -54 0 -9 -7 -19 -15 -23
-27 -10 -135 26 -262 87 -201 96 -281 160 -329 264 -31 67 -30 82 6 101 49 25
41 59 -21 93 -118 64 -311 204 -297 217 2 1 26 13 55 25 32 13 55 30 59 43 10
31 -4 170 -40 400 -17 114 -29 207 -25 207 4 0 17 -24 27 -52 37 -96 73 -172
127 -263 85 -143 133 -186 169 -150 50 50 -28 225 -190 425 -57 71 -65 94 -36
108 112 60 551 -56 664 -175 34 -35 54 -84 83 -198 l23 -90 -23 -40 c-102
-175 -136 -567 -69 -805 27 -95 81 -128 123 -75 62 80 90 531 51 830 -9 68 -8
71 18 99 100 106 368 299 567 408 97 54 111 58 525 161 1343 335 2202 620
2404 798 137 121 108 237 -82 333 -37 19 -86 39 -109 46 -24 7 -43 16 -43 20
0 3 31 28 69 54 75 51 101 82 101 120 0 42 -39 62 -157 80 -242 37 -528 39
-644 6 -47 -13 -89 -53 -89 -83 0 -53 78 -88 342 -153 87 -21 154 -41 150 -45
-16 -14 -228 -91 -343 -124 -198 -57 -332 -77 -484 -73 -112 3 -139 7 -193 30
-106 44 -170 89 -283 196 -112 107 -399 450 -399 477 0 37 58 125 126 193 41
39 79 72 85 72 7 0 82 -22 168 -49 461 -147 1067 -294 1541 -375 355 -61 438
-70 670 -70 211 -1 217 0 295 27 392 139 1138 634 1821 1210 223 187 515 478
582 580 79 120 92 185 92 488 0 534 -119 1188 -271 1480 -69 131 -173 219
-262 219 -20 0 -37 3 -37 6 0 4 26 34 58 68 231 247 390 510 454 749 17 64 22
111 22 212 0 148 -12 204 -76 355 -92 218 -188 343 -363 475 -113 85 -128 101
-250 260 -71 94 -179 220 -240 281 -181 182 -235 197 -540 149 -456 -71 -931
-198 -1170 -315 -181 -88 -235 -149 -235 -267 0 -113 62 -249 176 -389 l34
-41 -117 1 c-143 1 -197 -13 -257 -65 -39 -35 -51 -54 -70 -112 -5 -16 -18 -7
-79 55 -39 41 -86 80 -104 87 -27 11 -33 20 -42 62 -47 217 57 420 292 574
207 135 466 232 1026 385 160 43 313 89 340 101 111 47 140 128 80 225 -33 53
-429 449 -546 545 -228 188 -572 360 -778 388 -86 12 -332 12 -505 0z m463
-416 c36 -130 42 -197 42 -463 0 -381 -21 -464 -149 -589 -97 -95 -208 -173
-501 -351 -442 -268 -521 -345 -594 -571 -39 -119 -52 -211 -58 -402 -4 -143
-9 -190 -19 -194 -7 -3 -53 13 -101 36 -121 55 -206 76 -253 62 -82 -24 -130
-103 -319 -524 -154 -342 -256 -509 -639 -1050 -167 -236 -255 -373 -273 -427
l-11 -30 -68 60 -67 60 -13 77 c-14 88 -7 190 19 273 l17 55 56 -3 c160 -10
328 93 328 200 0 63 -50 98 -138 98 -83 -1 -175 -55 -238 -141 -20 -27 -42
-49 -49 -49 -24 0 -110 87 -139 140 -77 141 -75 295 4 467 50 107 88 162 178
255 84 87 167 145 262 184 92 37 160 84 257 177 275 263 684 906 725 1140 7
34 12 63 13 65 2 1 56 12 121 23 184 31 264 58 264 91 0 21 -42 48 -75 48 -23
0 -35 5 -35 14 0 52 328 391 649 671 311 271 765 654 777 654 6 1 18 -25 27
-56z m1828 -895 c82 -41 210 -168 339 -337 155 -203 191 -242 295 -321 164
-122 231 -201 320 -378 103 -207 133 -364 101 -535 -37 -194 -125 -376 -286
-587 -92 -120 -245 -285 -297 -318 -72 -46 -229 -106 -406 -153 -157 -42 -158
-43 -189 -25 -40 24 -71 19 -278 -43 -421 -125 -569 -131 -830 -34 -459 171
-896 562 -976 873 -11 44 -15 92 -12 155 5 120 41 200 130 289 111 110 104
117 112 -112 10 -307 41 -488 91 -538 53 -53 140 -15 164 72 35 125 -27 403
-144 648 -44 94 -47 103 -43 167 4 81 24 114 86 146 60 30 140 36 267 19 179
-23 187 -3 61 149 -118 143 -176 262 -176 363 0 54 2 58 49 103 65 63 193 125
401 193 252 83 660 178 930 215 41 6 86 13 100 15 82 12 128 5 191 -26z
m-4851 -172 c0 -12 -5 -7 -19 24 -11 24 -11 24 3 6 9 -11 16 -24 16 -30z m971
-150 c97 -21 164 -53 204 -97 36 -40 45 -69 23 -69 -7 0 -69 -7 -138 -15 -180
-22 -564 -31 -673 -16 -105 14 -185 42 -216 75 l-22 23 88 31 c218 77 312 93
513 87 85 -2 185 -11 221 -19z m1731 -123 c-95 -114 -137 -246 -129 -400 5
-100 4 -103 -17 -103 -94 0 -365 -335 -524 -647 -108 -213 -154 -377 -155
-553 -1 -160 33 -265 123 -379 149 -188 570 -349 1010 -386 41 -3 179 -10 305
-14 301 -10 336 -25 259 -110 -73 -82 -240 -169 -594 -311 l-205 -82 -98 6
c-108 7 -175 19 -222 42 l-31 15 -12 206 c-12 208 -22 253 -55 253 -19 0 -37
-21 -37 -44 0 -19 -26 -56 -40 -56 -4 0 -10 25 -14 56 -8 68 -28 119 -53 132
-10 6 -79 17 -153 26 -151 18 -200 30 -231 59 -24 22 -22 44 18 205 20 82 23
109 14 128 -16 35 -48 30 -111 -17 -61 -46 -75 -52 -254 -116 -369 -130 -506
-238 -862 -683 -100 -124 -205 -252 -235 -284 -67 -74 -145 -136 -169 -136
-18 0 -18 2 -4 36 26 61 105 182 302 461 386 548 464 679 647 1093 104 234
148 322 187 366 31 35 34 36 88 31 35 -3 91 -21 156 -51 116 -52 169 -59 200
-25 17 19 20 44 26 213 9 260 29 366 99 514 63 137 125 186 594 476 110 68
204 124 208 125 5 1 -10 -20 -31 -46z m-2762 -97 c-21 -55 -64 -134 -102 -184
-47 -63 -132 -121 -363 -248 -248 -136 -781 -392 -792 -380 -5 5 225 186 372
293 153 110 356 245 510 338 126 76 363 204 377 205 4 0 3 -11 -2 -24z m2698
-546 c17 -38 55 -99 82 -135 28 -36 50 -69 50 -72 0 -3 -30 -37 -66 -76 -251
-266 -185 -622 183 -978 162 -157 323 -270 532 -374 245 -122 464 -168 666
-141 l59 8 -32 -30 c-17 -16 -36 -42 -42 -57 -24 -63 20 -138 87 -151 161 -30
480 140 574 306 24 42 24 42 139 72 144 36 271 75 327 99 24 10 43 16 43 14 0
-15 -232 -306 -288 -362 -63 -62 -328 -304 -363 -330 -12 -10 -26 -8 -70 9
-36 13 -87 22 -150 26 -82 4 -116 0 -235 -26 -223 -50 -490 -89 -799 -116
-265 -24 -341 -28 -330 -18 6 5 48 24 95 42 140 54 401 186 464 234 102 78
136 149 101 215 -27 54 -69 62 -400 77 -326 14 -458 30 -635 75 -321 83 -549
219 -630 378 -74 145 -68 359 16 591 79 222 278 534 454 713 61 62 81 77 105
77 28 0 33 -6 63 -70z m147 -62 c62 -84 89 -128 78 -128 -10 0 -94 103 -123
153 -35 59 -6 43 45 -25z m-12429 -293 c776 -51 1616 -145 2015 -225 188 -38
240 -57 259 -95 22 -44 25 -194 6 -304 -15 -87 -57 -230 -76 -261 -9 -15 -45
-17 -143 -5 -61 7 -70 6 -90 -13 -20 -18 -42 -21 -272 -31 -137 -6 -340 -20
-450 -32 -260 -28 -551 -31 -648 -6 -37 9 -89 28 -116 41 -114 58 -210 231
-281 503 -40 155 -44 163 -75 163 -33 0 -37 -21 -33 -176 l3 -128 -29 -15
c-51 -24 -198 -28 -626 -14 -647 21 -987 1 -1239 -73 -45 -13 -67 -28 -125
-87 -39 -40 -86 -98 -104 -129 -52 -89 -126 -261 -172 -403 -24 -71 -51 -137
-61 -146 -50 -45 -210 -25 -345 41 -45 23 -89 49 -98 59 -16 17 -15 22 14 68
79 127 27 193 -97 123 l-53 -30 -6 26 c-20 79 20 164 111 234 286 220 1266
663 1862 840 317 94 430 104 869 75z m12643 -129 c69 -207 87 -377 46 -432
-44 -60 -83 109 -100 445 -5 79 -3 121 3 117 5 -3 28 -62 51 -130z m-5825
-316 c75 -98 73 -98 -30 -8 -23 19 -47 37 -54 40 -10 3 -10 9 -1 27 15 27 25
21 85 -59z m-4105 34 c18 -4 30 -12 28 -18 -6 -15 -103 -10 -153 8 l-39 15 66
0 c37 1 81 -2 98 -5z m731 -84 c93 -15 208 -54 339 -116 123 -58 288 -163 335
-213 l30 -31 -40 0 c-21 0 -138 10 -259 21 -276 27 -527 30 -569 9 -77 -40
-63 -76 82 -201 125 -108 202 -186 202 -205 0 -27 -97 -32 -185 -9 -129 34
-249 125 -371 281 -85 109 -93 114 -176 114 -38 0 -68 4 -68 9 0 5 9 62 20
126 11 64 20 134 20 155 l0 37 148 13 c81 6 152 13 157 15 24 8 276 4 335 -5z
m3436 -137 c172 -151 254 -239 254 -272 0 -82 -411 -530 -620 -677 -135 -95
-281 -184 -302 -184 -44 0 -80 116 -80 255 0 107 30 209 92 314 37 63 65 98
210 264 90 103 173 250 241 425 5 12 15 22 23 22 8 0 90 -66 182 -147z m-302
85 c-11 -36 -83 -178 -119 -234 -18 -27 -76 -99 -130 -160 -165 -184 -237
-316 -265 -483 -19 -112 5 -280 50 -358 l18 -31 -69 -26 c-39 -14 -75 -26 -81
-26 -17 0 -3 278 22 410 40 217 108 448 167 564 41 81 190 224 339 326 68 46
78 48 68 18z m-7116 -302 c265 -40 481 -104 688 -206 233 -115 311 -197 355
-370 19 -73 21 -103 16 -244 -5 -166 -19 -265 -63 -446 -52 -210 -177 -548
-256 -690 -132 -237 -383 -402 -713 -467 -127 -25 -459 -24 -600 1 -151 27
-355 81 -437 116 -81 35 -209 118 -281 182 l-47 43 19 95 c83 401 31 827 -124
1016 -64 77 -187 117 -243 78 -28 -20 -28 -17 9 129 l30 122 77 81 c42 44 116
124 165 177 48 52 117 118 155 146 172 130 420 219 697 251 110 12 428 4 553
-14z m6480 -3 c21 -54 24 -75 24 -171 0 -137 -22 -240 -106 -501 -83 -256 -93
-304 -73 -353 19 -44 41 -61 90 -67 37 -5 44 -11 73 -61 41 -68 42 -101 4
-167 -28 -49 -135 -173 -149 -173 -3 0 -14 22 -24 50 -47 133 -201 300 -341
371 -43 21 -84 39 -91 39 -36 0 -22 66 25 115 53 57 112 161 252 445 150 306
213 422 258 470 35 37 45 38 58 3z m-3318 -97 c-12 -14 -36 -28 -52 -31 -33
-8 -203 14 -193 24 6 6 171 27 234 30 l34 1 -23 -24z m8796 -121 c-16 -43 -37
-180 -32 -210 16 -82 88 -117 289 -141 76 -8 138 -21 145 -28 7 -7 16 -47 19
-90 l6 -76 -104 -49 c-57 -27 -214 -95 -349 -151 -354 -147 -516 -227 -566
-282 -83 -90 -190 -304 -266 -532 -22 -66 -42 -122 -43 -124 -2 -2 -35 41 -73
95 -67 93 -108 143 -117 143 -2 0 -41 -12 -85 -26 l-81 -25 -42 48 c-23 26
-83 92 -134 147 l-91 100 46 27 c70 40 197 177 403 434 202 253 350 409 448
475 88 59 240 129 410 189 79 28 158 59 175 70 38 24 50 25 42 6z m3762 -54
c129 -66 233 -295 316 -696 106 -516 131 -1148 50 -1307 -39 -77 -182 -237
-359 -401 -524 -486 -1363 -1092 -1830 -1322 -191 -94 -266 -117 -407 -123
-392 -17 -1340 166 -2172 418 -237 72 -221 61 -156 102 30 19 90 56 133 82
118 72 124 99 43 185 -30 31 -60 69 -65 84 -6 16 -11 78 -11 139 l0 112 41 63
c23 35 47 63 53 63 7 0 84 -11 172 -25 255 -39 452 -56 709 -62 270 -6 398 4
527 43 49 14 107 24 145 24 l63 0 0 -49 c0 -86 76 -164 196 -201 93 -28 139
-27 160 5 15 24 15 28 0 70 -24 61 -91 133 -164 175 -34 19 -62 38 -62 42 0
12 87 73 175 121 44 25 213 113 375 197 162 84 345 180 405 213 529 289 828
516 920 698 55 107 68 233 35 341 -16 56 -87 155 -136 191 -24 18 -43 35 -44
38 0 4 57 58 127 120 197 176 300 283 403 419 120 159 155 197 209 232 53 33
97 36 149 9z m-17918 -88 c0 -5 -9 -19 -20 -33 -15 -21 -21 -23 -32 -12 -11
11 -9 17 12 32 26 21 40 25 40 13z m-97 -101 c15 -16 11 -22 -53 -92 -38 -41
-69 -69 -70 -62 -1 28 82 172 99 172 4 0 15 -8 24 -18z m17064 -87 c-101 -94
-289 -185 -384 -185 -20 0 -41 8 -53 20 -62 62 76 130 460 228 19 5 37 7 40 4
3 -2 -25 -32 -63 -67z m-7303 19 c17 -65 -39 -218 -121 -332 -107 -152 -258
-271 -513 -407 -80 -42 -197 -112 -260 -154 -63 -42 -119 -78 -125 -80 -5 -2
12 20 39 50 61 67 111 169 110 224 -1 27 -11 56 -32 89 l-32 50 73 27 c39 14
101 40 137 56 36 17 87 38 113 48 63 22 173 96 273 182 43 38 113 96 154 130
41 34 95 80 120 102 25 22 48 40 51 41 4 0 10 -12 13 -26z m-9651 -28 c94 -71
246 -120 368 -121 l86 0 -9 -30 c-4 -16 -24 -102 -44 -190 -20 -88 -37 -162
-39 -164 -2 -2 -55 7 -117 20 -83 17 -148 23 -243 23 -143 1 -207 -11 -299
-54 l-58 -28 6 55 c3 30 17 101 31 156 l24 102 123 127 c68 69 127 127 131
127 5 1 23 -10 40 -23z m12698 -16 c10 -6 19 -16 19 -23 0 -18 -57 -71 -98
-91 -44 -23 -127 -37 -154 -27 -21 7 -20 10 28 61 71 77 152 108 205 80z
m2013 -357 c5 -116 11 -164 22 -181 20 -30 80 -57 163 -73 73 -14 74 -13 -74
-69 -131 -49 -213 -90 -278 -136 -26 -19 -49 -34 -52 -34 -3 0 18 28 46 63 28
34 64 89 80 122 29 60 29 61 29 247 0 182 1 187 22 202 12 9 25 16 29 16 3 0
9 -71 13 -157z m-6087 27 c-2 -115 -3 -121 -22 -118 -30 4 -31 72 -4 164 12
41 23 74 25 74 1 0 2 -54 1 -120z m-4882 -18 c178 -128 262 -198 385 -321 192
-193 241 -277 411 -695 38 -93 68 -170 67 -171 -2 -1 -24 -12 -51 -23 -26 -12
-50 -28 -53 -36 -3 -8 8 -35 26 -60 17 -25 49 -84 72 -132 49 -101 63 -207 35
-261 -18 -33 -144 -149 -153 -140 -3 3 0 41 6 84 21 143 -11 358 -80 529 -45
113 -88 186 -245 419 -78 116 -204 317 -279 448 -75 132 -159 273 -185 315
-26 43 -53 88 -60 101 -16 29 -17 29 104 -57z m10833 -99 l-3 -159 -35 -59
c-72 -123 -324 -353 -611 -559 -212 -151 -542 -339 -559 -319 -4 5 -20 33 -37
63 l-31 56 23 89 c55 216 187 509 277 610 39 45 215 132 538 265 135 56 286
121 335 144 50 24 94 40 98 36 5 -4 7 -79 5 -167z m-13963 62 c93 -38 168
-186 206 -405 19 -109 16 -381 -6 -517 -9 -62 -21 -113 -25 -113 -35 0 -230
346 -230 406 0 9 16 35 35 58 127 155 98 317 -72 399 -48 23 -53 42 -29 110
27 75 56 90 121 62z m16234 -97 l34 -14 -164 -144 c-90 -80 -216 -193 -280
-251 -75 -69 -128 -109 -148 -114 -43 -9 -97 19 -201 105 -46 38 -104 78 -129
87 -42 16 -45 16 -80 -3 -53 -28 -70 -88 -81 -293 -18 -299 -29 -333 -119
-348 -79 -14 -376 -5 -616 17 -320 30 -722 38 -835 16 -222 -42 -344 -165
-630 -634 -85 -139 -96 -153 -119 -150 -24 3 -26 6 -26 54 1 48 6 58 75 150
404 540 899 1052 1139 1178 36 19 162 71 279 115 l214 81 133 0 c320 0 945 73
1240 145 112 28 252 29 314 3z m-16614 -59 c55 -11 104 -24 108 -28 4 -4 -1
-62 -12 -127 -11 -65 -29 -188 -41 -272 -11 -85 -23 -158 -26 -163 -10 -17
-184 -99 -277 -131 -73 -25 -110 -32 -175 -32 -82 -1 -84 0 -112 31 -17 19
-39 64 -52 105 -21 67 -23 92 -23 289 0 242 -2 235 76 284 116 74 303 89 534
44z m7826 -41 c94 -108 138 -167 169 -233 33 -70 65 -204 56 -239 -4 -15 -29
-35 -77 -61 -85 -47 -153 -118 -200 -209 -19 -36 -40 -68 -48 -71 -7 -3 -46
24 -90 62 -248 219 -280 286 -231 477 51 199 176 317 356 335 6 1 35 -27 65
-61z m8968 -4 c87 -80 116 -144 116 -255 0 -78 -3 -91 -37 -160 -102 -206
-431 -440 -1139 -810 -617 -321 -659 -345 -725 -408 -29 -28 -34 -29 -125 -28
-75 1 -112 -4 -184 -26 -157 -47 -380 -59 -695 -37 -228 16 -641 67 -655 82
-4 4 186 313 255 413 68 98 186 224 248 264 94 59 139 66 427 65 193 0 326 -6
515 -24 168 -16 325 -24 460 -24 347 -1 356 8 380 415 11 184 25 239 59 239
11 0 64 -35 118 -79 110 -88 144 -108 201 -117 65 -10 107 11 215 110 175 159
491 436 499 436 4 0 34 -25 67 -56z m-4793 -7 c77 -57 86 -69 118 -152 15 -38
74 -161 131 -272 l103 -202 -52 -11 c-116 -25 -399 -69 -513 -79 -173 -16
-452 -14 -586 4 -205 27 -371 80 -434 138 -109 99 181 294 730 492 159 57 383
124 418 124 17 1 50 -16 85 -42z m-3997 -41 c102 -82 188 -204 212 -300 l12
-50 -49 -43 -49 -44 -7 58 c-16 143 -60 253 -148 367 -28 36 -48 66 -44 66 4
0 37 -24 73 -54z m-7709 -11 c87 -64 94 -157 19 -254 l-19 -23 -9 25 c-28 74
-52 277 -33 277 4 0 23 -11 42 -25z m-84 -245 l23 -95 -32 -28 c-45 -40 -77
-61 -83 -54 -5 5 16 166 39 297 l11 65 9 -45 c5 -25 19 -88 33 -140z m12354
-264 c0 -7 -30 -20 -66 -29 -63 -17 -67 -17 -79 0 -8 10 -57 104 -110 208
l-96 190 175 -179 c97 -99 176 -184 176 -190z m-13226 -6 c25 -98 64 -161 117
-188 39 -21 53 -23 134 -19 101 6 221 41 350 102 42 20 78 35 81 33 2 -3 -1
-69 -7 -149 -14 -185 -6 -561 15 -650 8 -36 27 -93 42 -127 l27 -62 -34 -40
c-83 -97 -195 -218 -201 -219 -4 -1 -11 14 -16 32 -34 117 -172 444 -327 771
-183 388 -224 520 -225 722 0 61 3 114 8 118 4 4 10 -52 13 -126 3 -73 14
-162 23 -198z m3854 203 c144 -57 286 -161 344 -252 57 -90 31 -160 -105 -287
-275 -257 -795 -479 -1247 -534 -98 -12 -350 -14 -350 -2 0 4 136 60 303 126
688 270 901 367 995 451 72 65 78 84 63 218 -10 97 -37 197 -76 290 -9 22 -6
22 73 -10z m-2894 -193 c44 -99 122 -230 186 -308 l51 -64 -21 -66 c-35 -107
-76 -190 -155 -307 -75 -112 -189 -255 -204 -255 -14 0 -49 92 -63 165 -16 87
-16 564 0 710 10 86 14 102 34 115 12 8 45 32 72 53 28 20 54 36 59 34 5 -1
23 -36 41 -77z m6861 -37 c72 -187 151 -330 227 -409 l39 -40 -78 -66 c-43
-35 -116 -101 -163 -145 -183 -172 -519 -446 -845 -689 -332 -247 -588 -419
-821 -551 l-109 -62 -70 16 c-247 54 -745 -74 -745 -191 0 -58 47 -81 191 -92
137 -11 303 32 518 132 52 24 100 44 107 44 27 0 27 -47 0 -105 -25 -56 -95
-153 -137 -191 -28 -26 -252 -106 -549 -197 -829 -255 -1596 -404 -2030 -395
l-145 3 -23 43 c-38 68 -52 138 -51 252 2 156 5 163 60 171 85 12 126 45 198
158 52 81 81 174 81 258 0 55 -4 67 -25 88 -85 86 -236 -72 -329 -345 -24 -71
-27 -75 -53 -72 -49 6 -225 86 -348 159 -383 227 -768 561 -922 800 -51 79
-54 113 -16 171 30 42 109 113 156 138 26 14 37 12 168 -31 221 -72 686 -177
1378 -310 249 -48 296 -55 307 -43 8 8 33 108 56 223 22 116 43 212 44 214 6
8 253 -143 344 -209 51 -38 104 -71 117 -75 49 -12 215 39 312 96 18 11 35 18
37 16 2 -2 -11 -24 -30 -48 -31 -41 -44 -49 -152 -88 -266 -97 -404 -184 -404
-255 0 -51 40 -80 100 -72 94 12 246 104 397 242 81 73 100 81 373 159 201 58
449 117 625 151 172 32 341 37 425 12 89 -28 91 -30 78 -119 -14 -102 -4 -164
33 -201 22 -22 35 -28 51 -23 89 26 135 141 95 236 -8 19 -29 50 -47 69 l-33
35 30 55 c40 74 80 105 528 407 209 141 443 301 520 357 245 175 427 327 462
387 10 16 20 29 24 29 4 0 24 -44 44 -97z m6657 -80 c-189 -203 -413 -469
-552 -655 -19 -26 -38 -48 -42 -48 -3 0 -6 51 -7 113 0 90 -4 127 -21 176 -12
34 -20 64 -19 65 2 2 58 31 124 64 66 34 167 91 225 128 116 73 365 248 375
264 3 6 11 10 16 10 6 0 -39 -53 -99 -117z m-1073 -103 c153 -203 230 -344
231 -421 0 -83 -51 -66 -167 55 -43 44 -111 126 -150 181 -76 106 -183 273
-183 285 0 4 33 16 73 27 88 24 78 30 196 -127z m-7673 -130 c137 -18 254 -85
254 -146 0 -61 -84 -149 -225 -234 -79 -48 -433 -224 -464 -232 -9 -2 -19 24
-33 92 -10 52 -44 171 -74 263 -31 93 -54 171 -51 173 9 10 236 63 312 73 160
22 190 23 281 11z m6590 -64 c132 -64 369 -228 481 -333 19 -18 37 -50 47 -82
l15 -52 -46 -72 c-109 -170 -196 -359 -209 -455 l-6 -50 -62 27 c-33 15 -98
40 -143 55 -386 128 -1013 660 -1013 860 0 45 29 66 91 66 101 0 258 -77 577
-284 254 -165 296 -185 339 -164 49 23 42 52 -43 179 -42 63 -88 136 -101 164
-28 54 -63 150 -63 172 0 24 45 14 136 -31z m-3962 -94 c-15 -26 -82 -101
-148 -167 -210 -209 -387 -356 -1496 -1240 -118 -95 -240 -194 -270 -222 -30
-27 -75 -62 -99 -78 -49 -30 -261 -128 -267 -122 -2 2 8 21 23 42 34 50 63
127 63 166 0 16 -7 43 -15 59 -9 17 -11 30 -6 30 16 0 295 172 476 294 410
277 886 646 1207 936 275 248 336 297 381 303 23 3 71 21 107 39 76 39 85 31
44 -40z m-7021 3 c212 -170 556 -270 976 -284 l194 -6 -92 -37 c-51 -21 -107
-38 -126 -38 -58 0 -265 39 -405 77 -276 73 -313 82 -389 88 -105 10 -151 -8
-151 -59 0 -74 128 -158 488 -322 l44 -20 -61 -47 c-107 -84 -154 -180 -127
-258 21 -60 59 -117 145 -221 271 -324 838 -735 1161 -843 l82 -27 -7 -47 c-4
-25 -7 -94 -6 -153 0 -87 5 -121 26 -184 14 -42 24 -78 23 -79 -7 -6 -294 48
-408 76 -226 56 -370 122 -503 229 -85 69 -162 164 -274 341 -117 184 -170
245 -514 595 -312 318 -436 456 -516 576 l-45 67 23 29 c13 16 51 63 85 103
121 146 239 347 275 467 6 23 14 42 16 42 3 0 41 -29 86 -65z m191 -276 c42
-5 156 -32 253 -60 98 -27 229 -59 291 -71 l113 -21 -112 -59 c-62 -32 -119
-58 -126 -58 -26 0 -301 128 -395 183 -98 58 -145 97 -115 97 8 0 50 -5 91
-11z m11718 -142 l137 -71 -160 -314 c-126 -245 -160 -320 -157 -343 3 -16 3
-29 0 -29 -4 0 -281 130 -291 136 -2 2 13 17 34 35 45 40 80 107 107 207 16
60 21 113 24 242 l3 165 36 42 36 42 47 -20 c26 -11 109 -52 184 -92z m-375
-189 c-13 -209 -85 -368 -166 -368 -47 0 -32 95 38 246 43 90 119 224 128 224
3 0 3 -46 0 -102z m779 46 c22 -9 40 -17 42 -19 2 -1 -25 -45 -58 -96 l-62
-94 7 70 c10 112 17 155 25 155 4 0 25 -7 46 -16z m154 -113 l0 -69 -67 -73
c-79 -85 -166 -156 -171 -140 -5 14 62 138 139 257 78 120 99 126 99 25z
m1986 -89 c27 -22 57 -54 67 -71 l19 -32 -29 7 c-57 13 -145 58 -168 86 -24
28 -33 67 -19 81 9 9 73 -26 130 -71z m-9571 -32 c8 -16 15 -41 15 -55 0 -27
-28 -85 -41 -85 -11 0 -19 76 -13 124 8 53 17 58 39 16z m7610 -280 c10 -19
36 -52 58 -73 35 -32 39 -39 26 -51 -11 -11 -151 -99 -259 -164 -24 -14 -32
-12 -126 23 -134 49 -131 47 -96 81 27 27 67 115 79 174 4 20 15 30 53 43 57
20 158 93 203 148 l32 38 6 -92 c3 -60 12 -104 24 -127z m-9386 39 c-70 -52
-164 -105 -211 -117 -91 -25 -14 37 133 107 57 28 110 50 118 51 8 0 -10 -18
-40 -41z m-3924 -51 c9 -46 15 -96 13 -113 l-3 -30 -38 38 c-30 31 -37 46 -37
78 0 43 23 109 38 109 5 0 17 -37 27 -82z m9888 -379 c87 -16 112 -34 150
-107 99 -189 266 -825 412 -1572 19 -102 38 -195 41 -208 4 -21 3 -21 -44 8
-95 58 -162 34 -162 -56 0 -95 46 -196 157 -341 l54 -71 -32 -99 c-26 -81 -32
-113 -31 -183 0 -47 2 -96 4 -110 3 -24 -2 -26 -151 -69 l-154 -43 -41 23
c-82 46 -169 23 -211 -55 -22 -40 -15 -38 -355 -106 -522 -105 -897 -127
-1008 -60 -38 24 -55 54 -86 164 -29 98 -32 142 -21 277 9 108 0 139 -41 139
-27 0 -44 -30 -44 -81 0 -16 -4 -29 -9 -29 -5 0 -40 12 -77 26 -95 36 -355
101 -438 109 l-69 8 7 71 c9 98 42 233 69 281 23 41 115 112 127 98 4 -4 18
-39 30 -78 51 -158 139 -305 183 -305 9 0 24 11 33 25 13 21 14 34 4 97 -12
79 -51 243 -77 322 l-15 48 -54 -4 -54 -5 -15 52 c-41 142 -117 501 -160 755
-49 291 -68 461 -69 630 l-1 165 35 17 c79 39 403 110 779 173 330 54 658 92
956 109 88 5 321 -4 378 -15z m-4469 -78 c39 -15 -232 -119 -369 -141 -61 -10
-111 -8 -205 6 -33 6 -34 6 -15 21 53 40 230 95 360 112 87 11 204 12 229 2z
m-2534 -56 c0 -125 -135 -335 -215 -335 -20 0 -19 15 4 83 47 137 169 321 200
302 6 -3 11 -26 11 -50z m9844 -89 c58 -24 106 -74 106 -110 0 -49 34 -174 69
-249 41 -91 123 -208 187 -266 l54 -49 -108 -42 c-412 -160 -728 -240 -952
-240 -159 0 -254 32 -324 110 -45 50 -56 77 -56 138 0 122 137 286 368 440
184 122 439 242 587 275 33 8 34 7 69 -7z m296 -307 c52 -66 134 -161 182
-212 47 -50 85 -95 82 -98 -2 -4 -18 -10 -34 -14 -55 -12 -159 83 -246 227
-37 60 -99 218 -86 217 4 0 50 -54 102 -120z m1695 -19 c50 -6 119 -16 154
-22 l65 -11 -31 -27 c-17 -16 -63 -46 -101 -69 l-70 -41 -199 51 c-229 58
-323 87 -323 99 0 5 17 12 38 15 20 4 42 8 47 10 23 8 338 4 420 -5z m-9456
-17 c0 -5 -46 -48 -101 -98 -55 -49 -147 -134 -204 -187 -126 -118 -190 -155
-365 -212 -406 -134 -1033 -189 -1474 -131 -66 9 -140 21 -165 27 -63 15 -170
64 -170 78 0 6 3 9 8 7 13 -8 335 11 463 28 486 62 1085 201 1721 401 114 35
222 71 240 79 38 16 48 18 47 8z m5152 -1382 c100 -66 98 -62 125 -216 13 -77
24 -144 24 -148 0 -5 -15 11 -32 36 -18 25 -57 78 -86 118 -49 68 -92 171 -92
220 0 25 8 24 61 -10z m-2371 -5 c0 -2 13 -57 30 -122 31 -123 33 -154 5 -88
-45 109 -74 203 -62 208 16 6 27 7 27 2z m2544 -522 c8 -54 17 -127 20 -161 7
-61 6 -62 -21 -76 -65 -33 -70 -32 -82 22 -7 32 -7 68 -1 107 10 59 59 218 66
212 2 -2 10 -49 18 -104z m917 -231 c6 -173 5 -403 -2 -473 -11 -109 -28 -192
-38 -185 -32 19 -48 397 -22 520 34 161 60 218 62 138z m-3242 -239 c-37 -116
-38 -119 -51 -106 -7 7 -6 23 2 49 21 62 74 177 77 166 2 -6 -10 -55 -28 -109z
m2275 61 c48 -46 161 -127 251 -180 15 -9 16 -14 5 -34 -33 -62 20 -190 113
-278 134 -124 431 -263 561 -263 39 0 86 35 86 65 0 24 15 18 71 -28 101 -81
301 -358 497 -683 362 -602 502 -1123 391 -1452 -59 -175 -258 -383 -540 -564
-96 -63 -229 -139 -229 -132 0 2 46 60 103 128 139 168 157 202 168 329 11
115 5 355 -17 652 -49 680 -159 1245 -274 1404 -68 93 -221 180 -434 247 -65
20 -156 57 -202 81 -144 77 -345 133 -473 133 l-58 0 -37 95 c-46 115 -149
274 -246 378 -40 43 -71 79 -69 80 5 4 252 75 264 76 6 1 37 -24 69 -54z
m-2837 -25 c176 -42 412 -150 438 -200 9 -16 22 -30 30 -30 8 0 15 -5 15 -11
0 -24 -83 -169 -132 -229 -69 -86 -95 -147 -178 -421 -80 -263 -134 -398 -188
-479 -39 -57 -98 -105 -143 -115 -25 -6 -30 -2 -60 55 -41 77 -82 110 -135
110 -51 0 -82 -22 -90 -65 -16 -86 65 -165 190 -187 15 -2 31 -37 71 -148 107
-301 130 -323 398 -383 81 -19 149 -36 152 -39 6 -5 49 -587 68 -921 13 -226
14 -228 40 -255 50 -50 142 -25 223 60 152 158 201 430 129 713 -52 206 -157
345 -322 426 l-62 31 -5 52 c-3 28 -8 88 -11 134 l-6 82 38 0 c21 0 61 -11 89
-24 133 -62 246 -218 383 -526 90 -206 106 -234 137 -259 49 -39 70 -29 169
73 49 52 102 102 118 111 l27 17 0 -58 c0 -151 -143 -571 -270 -795 -82 -145
-136 -209 -244 -293 -33 -24 -37 -33 -33 -60 2 -17 7 -38 11 -46 6 -14 -24
-13 -251 7 -313 27 -398 38 -529 68 -232 55 -324 128 -502 398 -223 338 -494
944 -593 1325 -45 174 -40 208 53 442 170 424 708 1408 792 1448 33 16 94 14
183 -8z m673 -44 c48 -173 142 -215 460 -203 222 9 509 51 859 128 74 16 136
27 138 26 6 -7 -60 -314 -79 -364 -13 -35 -33 -65 -61 -88 l-41 -35 -171 6
c-225 9 -474 -13 -697 -62 -19 -4 -28 -2 -28 6 0 23 -71 153 -115 210 -55 72
-142 152 -190 174 -48 23 -111 24 -154 2 -33 -17 -34 -17 -28 1 37 114 83 242
88 243 4 0 12 -20 19 -44z m1822 -57 c43 -44 101 -113 130 -152 47 -67 148
-259 148 -283 0 -6 -39 -19 -87 -28 -112 -22 -217 -66 -317 -133 -43 -29 -81
-53 -83 -53 -1 0 -3 11 -3 25 0 15 -11 36 -26 50 -24 22 -130 65 -163 65 -41
1 -44 17 -13 56 33 42 62 130 87 264 9 47 23 115 31 152 15 65 18 68 53 77 20
6 61 16 91 25 30 8 59 15 64 15 5 1 45 -35 88 -80z m-1746 -232 c64 -44 152
-150 198 -236 20 -38 36 -74 36 -80 0 -7 -14 -17 -31 -23 -106 -37 -295 -146
-409 -236 -76 -60 -72 -58 -66 -31 3 13 10 98 15 189 11 173 33 285 71 361 50
97 102 113 186 56z m-307 -213 c-10 -48 -21 -146 -24 -218 -3 -72 -11 -162
-17 -201 -10 -69 -12 -71 -91 -155 -210 -223 -329 -437 -315 -564 7 -60 38
-100 104 -132 52 -26 60 -27 153 -21 l98 7 7 -77 c8 -96 8 -153 0 -153 -23 0
-284 65 -305 76 -38 19 -78 70 -107 134 -26 58 -102 267 -102 279 0 4 25 18
55 30 115 48 205 191 291 461 155 491 143 461 229 578 17 23 33 41 36 42 3 0
-3 -39 -12 -86z m2382 -114 c28 -49 70 -70 142 -70 119 0 426 -49 480 -76 15
-8 27 -16 27 -17 0 -1 -50 -1 -110 1 -95 4 -134 0 -273 -29 l-161 -32 -136 13
c-229 22 -369 13 -485 -31 -27 -10 -53 -19 -58 -19 -20 0 28 60 84 106 121 98
226 150 355 177 105 23 110 22 135 -23z m258 15 c40 -9 71 -18 69 -20 -2 -2
-54 -1 -117 2 -91 5 -117 10 -134 25 -22 19 -22 19 44 14 36 -3 98 -12 138
-21z m-1281 -4 c20 -5 11 -11 -55 -40 -147 -64 -588 -201 -645 -201 -16 0 -18
9 -18 74 0 41 -3 81 -6 89 -6 17 29 26 195 53 166 27 473 41 529 25z m257 -27
c84 -17 140 -38 150 -55 4 -6 4 -30 1 -53 -5 -33 -23 -63 -74 -128 -38 -46
-90 -120 -117 -163 -27 -44 -67 -100 -88 -125 -104 -120 -227 -337 -286 -503
-77 -218 -87 -382 -45 -680 35 -242 32 -383 -9 -472 -16 -33 -45 -77 -65 -98
-39 -41 -282 -250 -282 -243 0 2 16 42 36 88 77 179 146 401 169 544 23 138 0
204 -69 204 -42 0 -90 -35 -183 -133 -40 -43 -77 -77 -81 -77 -12 0 -43 59
-97 185 -114 263 -202 411 -307 511 -76 74 -147 111 -228 122 -33 5 -63 11
-66 15 -3 3 -7 104 -7 224 -2 191 1 231 20 322 26 122 30 127 175 236 164 124
382 240 400 212 11 -18 10 -98 -3 -158 -9 -44 -9 -54 5 -67 15 -15 29 -13 174
22 235 57 528 157 662 225 63 32 120 59 126 60 7 0 47 -6 89 -15z m1672 -216
c91 -37 206 -117 238 -166 98 -148 203 -671 250 -1237 3 -38 8 -92 10 -120 19
-202 27 -537 16 -638 -12 -122 -18 -133 -190 -339 -71 -87 -137 -171 -147
-186 -14 -25 -126 -92 -153 -92 -5 0 24 33 63 73 155 155 248 344 293 590 13
75 17 185 21 592 5 637 -8 825 -72 1013 -67 195 -207 377 -370 480 -27 17 -55
41 -64 53 -14 20 -14 21 9 14 13 -4 56 -21 96 -37z m-281 -9 c96 -18 146 -44
175 -92 111 -185 128 -404 49 -620 -21 -61 -20 -91 5 -101 26 -10 42 4 63 51
22 52 26 49 41 -27 36 -187 46 -369 46 -840 -1 -428 -12 -554 -66 -772 -44
-172 -114 -339 -159 -376 -8 -7 -79 -44 -157 -82 -124 -61 -143 -73 -143 -94
0 -45 24 -52 101 -29 38 11 69 17 69 12 0 -13 -158 -154 -239 -212 -98 -71
-230 -148 -320 -186 -297 -126 -688 -119 -1068 20 -118 42 -290 129 -388 194
-89 59 -172 131 -140 120 103 -34 200 -56 232 -53 35 3 38 6 41 35 3 30 -2 36
-55 70 -77 49 -168 87 -294 120 l-103 28 -14 45 c-22 74 -12 184 22 255 35 70
142 182 318 329 65 54 133 122 153 151 85 123 98 271 50 600 -22 156 -26 211
-22 305 8 162 55 324 144 504 33 66 54 86 33 32 -5 -15 -10 -43 -10 -62 0 -27
5 -37 25 -46 22 -10 29 -8 56 18 51 48 171 261 264 466 l49 107 70 35 c139 69
207 74 591 50 76 -5 113 -1 235 25 155 32 251 38 346 20z m429 -304 c80 -113
123 -222 157 -400 18 -100 21 -159 25 -625 3 -350 1 -555 -7 -639 -19 -206
-76 -389 -162 -523 -39 -61 -104 -140 -120 -146 -4 -2 4 30 18 70 40 115 71
257 91 406 25 193 25 962 0 1188 -18 163 -47 292 -74 333 -14 21 -17 53 -18
176 -1 141 -9 200 -42 292 -10 29 85 -66 132 -132z m-1871 -76 c-30 -61 -58
-109 -61 -106 -7 8 95 217 107 217 6 0 -15 -50 -46 -111z m-1661 19 c-11 -62
-13 -135 -9 -284 7 -232 16 -211 -98 -220 -80 -6 -124 10 -160 59 -18 25 -19
32 -8 82 20 100 115 259 228 384 31 33 57 61 58 61 1 0 -4 -37 -11 -82z m-666
-147 c10 -11 26 -33 36 -50 18 -30 18 -31 -1 -31 -23 0 -68 33 -83 61 -20 38
17 54 48 20z m925 -872 c102 -101 154 -222 179 -418 24 -192 -27 -390 -128
-502 -61 -68 -128 -91 -137 -46 -3 12 -7 85 -11 162 -3 77 -17 295 -30 485
-14 190 -25 364 -25 388 l0 43 42 -23 c23 -13 73 -53 110 -89z m435 -1296 c-1
-27 2 -69 6 -95 8 -46 7 -48 -15 -48 -27 1 -118 64 -118 83 0 7 12 20 28 29
15 9 41 30 57 47 17 16 33 30 37 30 3 1 6 -20 5 -46z"/>
</g>
</svg>
